# xmcd
#
# Track frame offsets: 
#        150
#        12214
#        30746
#        53181
#        70513
#        90557
#        101170
#        123833
#        142861
#        157520
#        173615
#        187910
#
# Disc length: 2691 seconds
#
# Revision: 1
# Processed by: cddbd v1.5.2PL0 Copyright (c) Steve Scherf et al.
# Submitted via: ExactAudioCopyFreeDBPlugin 1.0
#
DISCID=830a810c
DTITLE=Jim Brickman - Hope
DYEAR=2007
DGENRE=New Age
TTITLE0=Winter Morning
TTITLE1=Sundown
TTITLE2=Distant Rain
TTITLE3=Daydream
TTITLE4=Open
TTITLE5=Inspiration
TTITLE6=Reflections
TTITLE7=The Day We Met
TTITLE8=Sunrise
TTITLE9=Contemplation
TTITLE10=Beautiful World
TTITLE11=The Journey
EXTD=YEAR: 2008
EXTT0=
EXTT1=
EXTT2=
EXTT3=
EXTT4=
EXTT5=
EXTT6=
EXTT7=
EXTT8=
EXTT9=
EXTT10=
EXTT11=
PLAYORDER=
